<svg xmlns="http://www.w3.org/2000/svg" width="37" height="37" viewBox="0 0 37 37">
  <g id="Group_1047" data-name="Group 1047" transform="translate(-29 -317)">
    <circle id="Ellipse_66" data-name="Ellipse 66" cx="18.5" cy="18.5" r="18.5" transform="translate(29 317)" fill="#fff"/>
    <g id="Icon_feather-settings" data-name="Icon feather-settings" transform="translate(36.075 324.075)">
      <path id="Path_27032" data-name="Path 27032" d="M18.913,16.207A2.707,2.707,0,1,1,16.207,13.5,2.707,2.707,0,0,1,18.913,16.207Z" transform="translate(-4.782 -4.782)" fill="none" stroke="#f9a72e" stroke-linecap="round" stroke-linejoin="round" stroke-width="2"/>
      <path id="Path_27033" data-name="Path 27033" d="M18.1,14.131a1.489,1.489,0,0,0,.3,1.642l.054.054A1.805,1.805,0,1,1,15.9,18.381l-.054-.054A1.5,1.5,0,0,0,13.3,19.391v.153a1.8,1.8,0,1,1-3.609,0v-.081A1.489,1.489,0,0,0,8.718,18.1a1.489,1.489,0,0,0-1.642.3l-.054.054A1.805,1.805,0,1,1,4.468,15.9l.054-.054A1.5,1.5,0,0,0,3.458,13.3H3.3a1.8,1.8,0,1,1,0-3.609h.081a1.489,1.489,0,0,0,1.362-.974,1.489,1.489,0,0,0-.3-1.642L4.4,7.022A1.806,1.806,0,0,1,5.673,3.939l1.1.372.18.157L7,4.522a1.489,1.489,0,0,0,1.642.3h.072a1.489,1.489,0,0,0,.9-1.362V3.3a1.8,1.8,0,1,1,3.609,0v.081A1.5,1.5,0,0,0,15.773,4.45l.054-.054A1.805,1.805,0,1,1,18.381,6.95L18.327,7a1.489,1.489,0,0,0-.3,1.642v.072a1.489,1.489,0,0,0,1.362.9h.153a1.8,1.8,0,1,1,0,3.609h-.081a1.489,1.489,0,0,0-1.362.9Z" fill="none" stroke="#f9a72e" stroke-linecap="round" stroke-linejoin="round" stroke-width="2"/>
    </g>
  </g>
</svg>
